<?xml version="1.0" encoding="UTF-8" standalone="no"?>
<!DOCTYPE svg PUBLIC "-//W3C//DTD SVG 1.1//EN"
 "http://www.w3.org/Graphics/SVG/1.1/DTD/svg11.dtd">
<!-- Generated by graphviz version 12.2.1 (20241206.2353)
 -->
<!-- Title: G Pages: 1 -->
<svg width="2331pt" height="1052pt"
 viewBox="0.00 0.00 2330.63 1052.00" xmlns="http://www.w3.org/2000/svg" xmlns:xlink="http://www.w3.org/1999/xlink">
<g id="graph0" class="graph" transform="scale(1 1) rotate(0) translate(4 1048)">
<title>G</title>
<polygon fill="white" stroke="none" points="-4,4 -4,-1048 2326.63,-1048 2326.63,4 -4,4"/>
<!-- Malgo.Driver -->
<g id="node1" class="node">
<title>Malgo.Driver</title>
<ellipse fill="none" stroke="black" cx="1357.45" cy="-1026" rx="62.1" ry="18"/>
<text text-anchor="middle" x="1357.45" y="-1020.95" font-family="Times,serif" font-size="14.00">Malgo.Driver</text>
</g>
<!-- Malgo.Infer -->
<g id="node2" class="node">
<title>Malgo.Infer</title>
<ellipse fill="none" stroke="black" cx="634.45" cy="-666" rx="55.96" ry="18"/>
<text text-anchor="middle" x="634.45" y="-660.95" font-family="Times,serif" font-size="14.00">Malgo.Infer</text>
</g>
<!-- Malgo.Driver&#45;&gt;Malgo.Infer -->
<g id="edge1" class="edge">
<title>Malgo.Driver&#45;&gt;Malgo.Infer</title>
<path fill="none" stroke="black" d="M1294.87,-1025.91C1119.23,-1026.79 634.45,-1017.07 634.45,-883 634.45,-883 634.45,-883 634.45,-809 634.45,-769.74 634.45,-724.38 634.45,-695.69"/>
<polygon fill="black" stroke="black" points="637.95,-696 634.45,-686 630.95,-696 637.95,-696"/>
</g>
<!-- Malgo.Interface -->
<g id="node3" class="node">
<title>Malgo.Interface</title>
<ellipse fill="none" stroke="black" cx="588.45" cy="-234" rx="70.8" ry="18"/>
<text text-anchor="middle" x="588.45" y="-228.95" font-family="Times,serif" font-size="14.00">Malgo.Interface</text>
</g>
<!-- Malgo.Driver&#45;&gt;Malgo.Interface -->
<g id="edge2" class="edge">
<title>Malgo.Driver&#45;&gt;Malgo.Interface</title>
<path fill="none" stroke="black" d="M1298.64,-1019.68C1219.75,-1008.95 1089.45,-976.99 1089.45,-883 1089.45,-883 1089.45,-883 1089.45,-665 1089.45,-405.84 768.19,-534.09 616.45,-324 603.54,-306.12 596.44,-282.08 592.63,-263.49"/>
<polygon fill="black" stroke="black" points="596.07,-262.88 590.84,-253.67 589.19,-264.14 596.07,-262.88"/>
</g>
<!-- Malgo.Module -->
<g id="node4" class="node">
<title>Malgo.Module</title>
<ellipse fill="none" stroke="black" cx="1389.45" cy="-162" rx="67.22" ry="18"/>
<text text-anchor="middle" x="1389.45" y="-156.95" font-family="Times,serif" font-size="14.00">Malgo.Module</text>
</g>
<!-- Malgo.Driver&#45;&gt;Malgo.Module -->
<g id="edge3" class="edge">
<title>Malgo.Driver&#45;&gt;Malgo.Module</title>
<path fill="none" stroke="black" d="M1345.64,-1007.96C1328.95,-982.16 1300.45,-931.08 1300.45,-883 1300.45,-883 1300.45,-883 1300.45,-665 1300.45,-528.65 1248.17,-494.98 1267.45,-360 1276.88,-294 1269.92,-269.68 1309.45,-216 1319.15,-202.83 1333.18,-191.97 1346.78,-183.58"/>
<polygon fill="black" stroke="black" points="1348.35,-186.72 1355.24,-178.67 1344.84,-180.66 1348.35,-186.72"/>
</g>
<!-- Malgo.Parser.Pass -->
<g id="node5" class="node">
<title>Malgo.Parser.Pass</title>
<ellipse fill="none" stroke="black" cx="1579.45" cy="-306" rx="79.5" ry="18"/>
<text text-anchor="middle" x="1579.45" y="-300.95" font-family="Times,serif" font-size="14.00">Malgo.Parser.Pass</text>
</g>
<!-- Malgo.Driver&#45;&gt;Malgo.Parser.Pass -->
<g id="edge4" class="edge">
<title>Malgo.Driver&#45;&gt;Malgo.Parser.Pass</title>
<path fill="none" stroke="black" d="M1415.97,-1019.43C1540.28,-1005.99 1819.45,-966.49 1819.45,-883 1819.45,-883 1819.45,-883 1819.45,-449 1819.45,-408.55 1828.69,-388.96 1800.45,-360 1789.8,-349.08 1711.39,-332.02 1650.96,-320.21"/>
<polygon fill="black" stroke="black" points="1651.88,-316.83 1641.39,-318.36 1650.55,-323.7 1651.88,-316.83"/>
</g>
<!-- Malgo.Pass -->
<g id="node6" class="node">
<title>Malgo.Pass</title>
<ellipse fill="none" stroke="black" cx="1389.45" cy="-234" rx="54.42" ry="18"/>
<text text-anchor="middle" x="1389.45" y="-228.95" font-family="Times,serif" font-size="14.00">Malgo.Pass</text>
</g>
<!-- Malgo.Driver&#45;&gt;Malgo.Pass -->
<g id="edge5" class="edge">
<title>Malgo.Driver&#45;&gt;Malgo.Pass</title>
<path fill="none" stroke="black" d="M1328.48,-1009.62C1313.89,-1000.5 1297.08,-987.65 1286.45,-972 1263.44,-938.11 1262.45,-923.97 1262.45,-883 1262.45,-883 1262.45,-883 1262.45,-665 1262.45,-569.51 1281.45,-546.49 1281.45,-451 1281.45,-451 1281.45,-451 1281.45,-377 1281.45,-326.4 1325.44,-282.55 1357.27,-257.44"/>
<polygon fill="black" stroke="black" points="1359.25,-260.33 1365.08,-251.49 1355.01,-254.77 1359.25,-260.33"/>
</g>
<!-- Malgo.Refine -->
<g id="node7" class="node">
<title>Malgo.Refine</title>
<ellipse fill="none" stroke="black" cx="864.45" cy="-954" rx="62.61" ry="18"/>
<text text-anchor="middle" x="864.45" y="-948.95" font-family="Times,serif" font-size="14.00">Malgo.Refine</text>
</g>
<!-- Malgo.Driver&#45;&gt;Malgo.Refine -->
<g id="edge6" class="edge">
<title>Malgo.Driver&#45;&gt;Malgo.Refine</title>
<path fill="none" stroke="black" d="M1302.81,-1017.24C1211.78,-1004.32 1029.38,-978.42 931,-964.45"/>
<polygon fill="black" stroke="black" points="931.61,-961 921.22,-963.06 930.63,-967.93 931.61,-961"/>
</g>
<!-- Malgo.Rename -->
<g id="node8" class="node">
<title>Malgo.Rename</title>
<ellipse fill="none" stroke="black" cx="908.45" cy="-378" rx="68.75" ry="18"/>
<text text-anchor="middle" x="908.45" y="-372.95" font-family="Times,serif" font-size="14.00">Malgo.Rename</text>
</g>
<!-- Malgo.Driver&#45;&gt;Malgo.Rename -->
<g id="edge7" class="edge">
<title>Malgo.Driver&#45;&gt;Malgo.Rename</title>
<path fill="none" stroke="black" d="M1315.9,-1012.3C1293.66,-1003.8 1267.1,-990.7 1248.45,-972 1217.43,-940.9 1205.45,-926.93 1205.45,-883 1205.45,-883 1205.45,-883 1205.45,-521 1205.45,-423.95 1074.78,-393.17 986.79,-383.45"/>
<polygon fill="black" stroke="black" points="987.29,-379.98 976.98,-382.44 986.57,-386.94 987.29,-379.98"/>
</g>
<!-- Malgo.Sequent.Core -->
<g id="node9" class="node">
<title>Malgo.Sequent.Core</title>
<ellipse fill="none" stroke="black" cx="2125.45" cy="-306" rx="88.2" ry="18"/>
<text text-anchor="middle" x="2125.45" y="-300.95" font-family="Times,serif" font-size="14.00">Malgo.Sequent.Core</text>
</g>
<!-- Malgo.Driver&#45;&gt;Malgo.Sequent.Core -->
<g id="edge8" class="edge">
<title>Malgo.Driver&#45;&gt;Malgo.Sequent.Core</title>
<path fill="none" stroke="black" d="M1419.32,-1023.68C1515.72,-1020.48 1706.76,-1009.52 1864.45,-972 1972.3,-946.34 2097.45,-993.85 2097.45,-883 2097.45,-883 2097.45,-883 2097.45,-449 2097.45,-409.21 2104.87,-363.71 2112.63,-335.16"/>
<polygon fill="black" stroke="black" points="2115.91,-336.42 2115.41,-325.84 2109.2,-334.42 2115.91,-336.42"/>
</g>
<!-- Malgo.Driver&#45;&gt;Malgo.Sequent.Core -->
<g id="edge9" class="edge">
<title>Malgo.Driver&#45;&gt;Malgo.Sequent.Core</title>
<path fill="none" stroke="black" d="M1419.49,-1024.02C1518.81,-1021.29 1718.63,-1010.98 1882.45,-972 1990.3,-946.34 2115.45,-993.85 2115.45,-883 2115.45,-883 2115.45,-883 2115.45,-449 2115.45,-409.39 2122.81,-364.11 2126.2,-335.54"/>
<polygon fill="black" stroke="black" points="2129.65,-336.21 2127.22,-325.89 2122.69,-335.47 2129.65,-336.21"/>
</g>
<!-- Malgo.Sequent.Core.Flat -->
<g id="node10" class="node">
<title>Malgo.Sequent.Core.Flat</title>
<ellipse fill="none" stroke="black" cx="1686.45" cy="-378" rx="105.09" ry="18"/>
<text text-anchor="middle" x="1686.45" y="-372.95" font-family="Times,serif" font-size="14.00">Malgo.Sequent.Core.Flat</text>
</g>
<!-- Malgo.Driver&#45;&gt;Malgo.Sequent.Core.Flat -->
<g id="edge10" class="edge">
<title>Malgo.Driver&#45;&gt;Malgo.Sequent.Core.Flat</title>
<path fill="none" stroke="black" d="M1402.7,-1013.36C1459.75,-995.65 1550.45,-956.01 1550.45,-883 1550.45,-883 1550.45,-883 1550.45,-521 1550.45,-466.56 1603.24,-424.84 1643.04,-401.12"/>
<polygon fill="black" stroke="black" points="1644.6,-404.25 1651.52,-396.23 1641.11,-398.19 1644.6,-404.25"/>
</g>
<!-- Malgo.Sequent.Core.Join -->
<g id="node11" class="node">
<title>Malgo.Sequent.Core.Join</title>
<ellipse fill="none" stroke="black" cx="1953.45" cy="-378" rx="106.11" ry="18"/>
<text text-anchor="middle" x="1953.45" y="-372.95" font-family="Times,serif" font-size="14.00">Malgo.Sequent.Core.Join</text>
</g>
<!-- Malgo.Driver&#45;&gt;Malgo.Sequent.Core.Join -->
<g id="edge11" class="edge">
<title>Malgo.Driver&#45;&gt;Malgo.Sequent.Core.Join</title>
<path fill="none" stroke="black" d="M1419.58,-1023.88C1531.9,-1020.92 1763.61,-1010.22 1833.45,-972 1878.09,-947.57 1905.45,-933.88 1905.45,-883 1905.45,-883 1905.45,-883 1905.45,-521 1905.45,-479.42 1924.15,-434.42 1938.21,-406.47"/>
<polygon fill="black" stroke="black" points="1941.3,-408.12 1942.81,-397.64 1935.09,-404.89 1941.3,-408.12"/>
</g>
<!-- Malgo.Sequent.Eval -->
<g id="node12" class="node">
<title>Malgo.Sequent.Eval</title>
<ellipse fill="none" stroke="black" cx="2235.45" cy="-378" rx="87.18" ry="18"/>
<text text-anchor="middle" x="2235.45" y="-372.95" font-family="Times,serif" font-size="14.00">Malgo.Sequent.Eval</text>
</g>
<!-- Malgo.Driver&#45;&gt;Malgo.Sequent.Eval -->
<g id="edge12" class="edge">
<title>Malgo.Driver&#45;&gt;Malgo.Sequent.Eval</title>
<path fill="none" stroke="black" d="M1419.48,-1023.8C1591.91,-1020.05 2068.34,-1006.62 2129.45,-972 2171.4,-948.24 2191.45,-931.21 2191.45,-883 2191.45,-883 2191.45,-883 2191.45,-521 2191.45,-479.76 2208.6,-434.68 2221.48,-406.62"/>
<polygon fill="black" stroke="black" points="2224.56,-408.3 2225.69,-397.76 2218.24,-405.29 2224.56,-408.3"/>
</g>
<!-- Malgo.Sequent.ToCore -->
<g id="node13" class="node">
<title>Malgo.Sequent.ToCore</title>
<ellipse fill="none" stroke="black" cx="1464.45" cy="-378" rx="98.44" ry="18"/>
<text text-anchor="middle" x="1464.45" y="-372.95" font-family="Times,serif" font-size="14.00">Malgo.Sequent.ToCore</text>
</g>
<!-- Malgo.Driver&#45;&gt;Malgo.Sequent.ToCore -->
<g id="edge13" class="edge">
<title>Malgo.Driver&#45;&gt;Malgo.Sequent.ToCore</title>
<path fill="none" stroke="black" d="M1370.51,-1008.15C1388.96,-982.59 1420.45,-931.82 1420.45,-883 1420.45,-883 1420.45,-883 1420.45,-521 1420.45,-479.76 1437.6,-434.68 1450.48,-406.62"/>
<polygon fill="black" stroke="black" points="1453.56,-408.3 1454.69,-397.76 1447.24,-405.29 1453.56,-408.3"/>
</g>
<!-- Malgo.Sequent.ToFun -->
<g id="node14" class="node">
<title>Malgo.Sequent.ToFun</title>
<ellipse fill="none" stroke="black" cx="1810.45" cy="-306" rx="94.86" ry="18"/>
<text text-anchor="middle" x="1810.45" y="-300.95" font-family="Times,serif" font-size="14.00">Malgo.Sequent.ToFun</text>
</g>
<!-- Malgo.Driver&#45;&gt;Malgo.Sequent.ToFun -->
<g id="edge14" class="edge">
<title>Malgo.Driver&#45;&gt;Malgo.Sequent.ToFun</title>
<path fill="none" stroke="black" d="M1353.61,-1007.61C1348.06,-980.94 1338.45,-928.27 1338.45,-883 1338.45,-883 1338.45,-883 1338.45,-449 1338.45,-408.55 1327.53,-387.21 1357.45,-360 1408.93,-313.2 1599.36,-332.14 1668.45,-324 1685.34,-322.01 1703.36,-319.87 1720.69,-317.8"/>
<polygon fill="black" stroke="black" points="1720.95,-321.29 1730.46,-316.63 1720.12,-314.34 1720.95,-321.29"/>
</g>
<!-- Malgo.Infer.Error -->
<g id="node15" class="node">
<title>Malgo.Infer.Error</title>
<ellipse fill="none" stroke="black" cx="77.45" cy="-90" rx="77.45" ry="18"/>
<text text-anchor="middle" x="77.45" y="-84.95" font-family="Times,serif" font-size="14.00">Malgo.Infer.Error</text>
</g>
<!-- Malgo.Infer&#45;&gt;Malgo.Infer.Error -->
<g id="edge15" class="edge">
<title>Malgo.Infer&#45;&gt;Malgo.Infer.Error</title>
<path fill="none" stroke="black" d="M579.39,-662.45C472.7,-656.92 241.81,-641.81 168.45,-612 108.58,-587.67 53.45,-587.63 53.45,-523 53.45,-523 53.45,-523 53.45,-233 53.45,-193.18 62.74,-147.95 69.76,-119.45"/>
<polygon fill="black" stroke="black" points="73.14,-120.35 72.22,-109.8 66.36,-118.62 73.14,-120.35"/>
</g>
<!-- Malgo.Infer.Kind -->
<g id="node16" class="node">
<title>Malgo.Infer.Kind</title>
<ellipse fill="none" stroke="black" cx="271.45" cy="-162" rx="76.43" ry="18"/>
<text text-anchor="middle" x="271.45" y="-156.95" font-family="Times,serif" font-size="14.00">Malgo.Infer.Kind</text>
</g>
<!-- Malgo.Infer&#45;&gt;Malgo.Infer.Kind -->
<g id="edge16" class="edge">
<title>Malgo.Infer&#45;&gt;Malgo.Infer.Kind</title>
<path fill="none" stroke="black" d="M579.93,-661.26C449.35,-650.82 129.45,-615.78 129.45,-523 129.45,-523 129.45,-523 129.45,-377 129.45,-296.62 199.87,-223.33 241.53,-187"/>
<polygon fill="black" stroke="black" points="243.7,-189.74 249.04,-180.59 239.16,-184.42 243.7,-189.74"/>
</g>
<!-- Malgo.Infer.Pass -->
<g id="node17" class="node">
<title>Malgo.Infer.Pass</title>
<ellipse fill="none" stroke="black" cx="560.45" cy="-594" rx="74.38" ry="18"/>
<text text-anchor="middle" x="560.45" y="-588.95" font-family="Times,serif" font-size="14.00">Malgo.Infer.Pass</text>
</g>
<!-- Malgo.Infer&#45;&gt;Malgo.Infer.Pass -->
<g id="edge17" class="edge">
<title>Malgo.Infer&#45;&gt;Malgo.Infer.Pass</title>
<path fill="none" stroke="black" d="M617.29,-648.76C608.15,-640.12 596.72,-629.3 586.51,-619.65"/>
<polygon fill="black" stroke="black" points="589.07,-617.25 579.4,-612.92 584.26,-622.33 589.07,-617.25"/>
</g>
<!-- Malgo.Infer.TcEnv -->
<g id="node18" class="node">
<title>Malgo.Infer.TcEnv</title>
<ellipse fill="none" stroke="black" cx="430.45" cy="-450" rx="82.57" ry="18"/>
<text text-anchor="middle" x="430.45" y="-444.95" font-family="Times,serif" font-size="14.00">Malgo.Infer.TcEnv</text>
</g>
<!-- Malgo.Infer&#45;&gt;Malgo.Infer.TcEnv -->
<g id="edge18" class="edge">
<title>Malgo.Infer&#45;&gt;Malgo.Infer.TcEnv</title>
<path fill="none" stroke="black" d="M581.53,-659.66C547.47,-653.52 504.64,-640.34 477.45,-612 442.74,-575.82 433.46,-515.47 431.11,-479.83"/>
<polygon fill="black" stroke="black" points="434.6,-479.66 430.61,-469.85 427.61,-480.01 434.6,-479.66"/>
</g>
<!-- Malgo.Infer.TypeRep -->
<g id="node19" class="node">
<title>Malgo.Infer.TypeRep</title>
<ellipse fill="none" stroke="black" cx="394.45" cy="-18" rx="91.78" ry="18"/>
<text text-anchor="middle" x="394.45" y="-12.95" font-family="Times,serif" font-size="14.00">Malgo.Infer.TypeRep</text>
</g>
<!-- Malgo.Infer&#45;&gt;Malgo.Infer.TypeRep -->
<g id="edge19" class="edge">
<title>Malgo.Infer&#45;&gt;Malgo.Infer.TypeRep</title>
<path fill="none" stroke="black" d="M639.21,-647.79C643.49,-629.75 648.41,-600.67 643.45,-576 642.71,-572.28 434.3,-75.31 432.45,-72 427.38,-62.91 421.04,-53.5 415.01,-45.19"/>
<polygon fill="black" stroke="black" points="417.85,-43.14 409.06,-37.22 412.24,-47.33 417.85,-43.14"/>
</g>
<!-- Malgo.Interface&#45;&gt;Malgo.Module -->
<g id="edge44" class="edge">
<title>Malgo.Interface&#45;&gt;Malgo.Module</title>
<path fill="none" stroke="black" d="M640.43,-221.55C651.3,-219.45 662.72,-217.47 673.45,-216 904.46,-184.47 1180.14,-170.72 1311.88,-165.6"/>
<polygon fill="black" stroke="black" points="1311.66,-169.11 1321.52,-165.23 1311.39,-162.12 1311.66,-169.11"/>
</g>
<!-- Malgo.Interface&#45;&gt;Malgo.Infer.Kind -->
<g id="edge42" class="edge">
<title>Malgo.Interface&#45;&gt;Malgo.Infer.Kind</title>
<path fill="none" stroke="black" d="M536.11,-221.44C481.51,-209.38 395.8,-190.46 336.8,-177.43"/>
<polygon fill="black" stroke="black" points="337.73,-174.05 327.21,-175.31 336.22,-180.89 337.73,-174.05"/>
</g>
<!-- Malgo.Interface&#45;&gt;Malgo.Infer.TypeRep -->
<g id="edge43" class="edge">
<title>Malgo.Interface&#45;&gt;Malgo.Infer.TypeRep</title>
<path fill="none" stroke="black" d="M583.35,-215.76C573.08,-183.66 547.07,-114.19 503.45,-72 488.79,-57.81 469.59,-46.77 451.41,-38.52"/>
<polygon fill="black" stroke="black" points="452.81,-35.32 442.25,-34.59 450.05,-41.75 452.81,-35.32"/>
</g>
<!-- Malgo.SExpr -->
<g id="node21" class="node">
<title>Malgo.SExpr</title>
<ellipse fill="none" stroke="black" cx="1971.45" cy="-90" rx="61.08" ry="18"/>
<text text-anchor="middle" x="1971.45" y="-84.95" font-family="Times,serif" font-size="14.00">Malgo.SExpr</text>
</g>
<!-- Malgo.Module&#45;&gt;Malgo.SExpr -->
<g id="edge45" class="edge">
<title>Malgo.Module&#45;&gt;Malgo.SExpr</title>
<path fill="none" stroke="black" d="M1448.99,-153.31C1558.06,-139.81 1789.04,-112.03 1903.84,-98.6"/>
<polygon fill="black" stroke="black" points="1904.22,-102.08 1913.75,-97.45 1903.41,-95.13 1904.22,-102.08"/>
</g>
<!-- Malgo.Module&#45;&gt;Malgo.SExpr -->
<g id="edge46" class="edge">
<title>Malgo.Module&#45;&gt;Malgo.SExpr</title>
<path fill="none" stroke="black" d="M1450.53,-154.16C1560.66,-141.31 1791.37,-113.57 1905.17,-99.53"/>
<polygon fill="black" stroke="black" points="1905.48,-103.01 1914.97,-98.31 1904.62,-96.07 1905.48,-103.01"/>
</g>
<!-- Malgo.Parser.Pass&#45;&gt;Malgo.Module -->
<g id="edge50" class="edge">
<title>Malgo.Parser.Pass&#45;&gt;Malgo.Module</title>
<path fill="none" stroke="black" d="M1563.94,-287.9C1546.15,-268.9 1515.57,-238.02 1485.45,-216 1468.62,-203.7 1448.63,-192.22 1431.25,-183.12"/>
<polygon fill="black" stroke="black" points="1433.21,-180.19 1422.71,-178.73 1430.01,-186.41 1433.21,-180.19"/>
</g>
<!-- Malgo.Parser.Pass&#45;&gt;Malgo.Pass -->
<g id="edge52" class="edge">
<title>Malgo.Parser.Pass&#45;&gt;Malgo.Pass</title>
<path fill="none" stroke="black" d="M1539.16,-290.15C1508.85,-278.99 1467.28,-263.67 1435.64,-252.01"/>
<polygon fill="black" stroke="black" points="1436.91,-248.75 1426.31,-248.58 1434.49,-255.32 1436.91,-248.75"/>
</g>
<!-- Malgo.Parser -->
<g id="node23" class="node">
<title>Malgo.Parser</title>
<ellipse fill="none" stroke="black" cx="1598.45" cy="-234" rx="61.08" ry="18"/>
<text text-anchor="middle" x="1598.45" y="-228.95" font-family="Times,serif" font-size="14.00">Malgo.Parser</text>
</g>
<!-- Malgo.Parser.Pass&#45;&gt;Malgo.Parser -->
<g id="edge51" class="edge">
<title>Malgo.Parser.Pass&#45;&gt;Malgo.Parser</title>
<path fill="none" stroke="black" d="M1584.15,-287.7C1586.18,-280.24 1588.59,-271.32 1590.86,-262.97"/>
<polygon fill="black" stroke="black" points="1594.17,-264.13 1593.41,-253.57 1587.42,-262.3 1594.17,-264.13"/>
</g>
<!-- Malgo.Refine.Pass -->
<g id="node24" class="node">
<title>Malgo.Refine.Pass</title>
<ellipse fill="none" stroke="black" cx="920.45" cy="-882" rx="81.55" ry="18"/>
<text text-anchor="middle" x="920.45" y="-876.95" font-family="Times,serif" font-size="14.00">Malgo.Refine.Pass</text>
</g>
<!-- Malgo.Refine&#45;&gt;Malgo.Refine.Pass -->
<g id="edge53" class="edge">
<title>Malgo.Refine&#45;&gt;Malgo.Refine.Pass</title>
<path fill="none" stroke="black" d="M878.01,-936.05C884.61,-927.8 892.69,-917.7 900.02,-908.54"/>
<polygon fill="black" stroke="black" points="902.56,-910.97 906.08,-900.97 897.1,-906.59 902.56,-910.97"/>
</g>
<!-- Malgo.Refine.RefineEnv -->
<g id="node25" class="node">
<title>Malgo.Refine.RefineEnv</title>
<ellipse fill="none" stroke="black" cx="805.45" cy="-738" rx="104.58" ry="18"/>
<text text-anchor="middle" x="805.45" y="-732.95" font-family="Times,serif" font-size="14.00">Malgo.Refine.RefineEnv</text>
</g>
<!-- Malgo.Refine&#45;&gt;Malgo.Refine.RefineEnv -->
<g id="edge54" class="edge">
<title>Malgo.Refine&#45;&gt;Malgo.Refine.RefineEnv</title>
<path fill="none" stroke="black" d="M832.31,-938.11C794.84,-918.74 734.81,-881.02 709.45,-828 702.55,-813.57 701.32,-805.78 709.45,-792 717.83,-777.81 731.51,-767.16 745.95,-759.28"/>
<polygon fill="black" stroke="black" points="747.28,-762.52 754.66,-754.93 744.15,-756.26 747.28,-762.52"/>
</g>
<!-- Malgo.Refine.Space -->
<g id="node26" class="node">
<title>Malgo.Refine.Space</title>
<ellipse fill="none" stroke="black" cx="805.45" cy="-810" rx="87.18" ry="18"/>
<text text-anchor="middle" x="805.45" y="-804.95" font-family="Times,serif" font-size="14.00">Malgo.Refine.Space</text>
</g>
<!-- Malgo.Refine&#45;&gt;Malgo.Refine.Space -->
<g id="edge55" class="edge">
<title>Malgo.Refine&#45;&gt;Malgo.Refine.Space</title>
<path fill="none" stroke="black" d="M851.3,-936.15C844,-926.12 835.25,-912.87 829.45,-900 820.7,-880.59 814.56,-857.31 810.69,-839.43"/>
<polygon fill="black" stroke="black" points="814.14,-838.87 808.71,-829.77 807.29,-840.27 814.14,-838.87"/>
</g>
<!-- Malgo.Rename.Pass -->
<g id="node27" class="node">
<title>Malgo.Rename.Pass</title>
<ellipse fill="none" stroke="black" cx="937.45" cy="-306" rx="87.69" ry="18"/>
<text text-anchor="middle" x="937.45" y="-300.95" font-family="Times,serif" font-size="14.00">Malgo.Rename.Pass</text>
</g>
<!-- Malgo.Rename&#45;&gt;Malgo.Rename.Pass -->
<g id="edge63" class="edge">
<title>Malgo.Rename&#45;&gt;Malgo.Rename.Pass</title>
<path fill="none" stroke="black" d="M915.62,-359.7C918.75,-352.15 922.49,-343.12 925.99,-334.68"/>
<polygon fill="black" stroke="black" points="929.19,-336.08 929.79,-325.5 922.73,-333.4 929.19,-336.08"/>
</g>
<!-- Malgo.Rename.RnEnv -->
<g id="node28" class="node">
<title>Malgo.Rename.RnEnv</title>
<ellipse fill="none" stroke="black" cx="850.45" cy="-234" rx="96.9" ry="18"/>
<text text-anchor="middle" x="850.45" y="-228.95" font-family="Times,serif" font-size="14.00">Malgo.Rename.RnEnv</text>
</g>
<!-- Malgo.Rename&#45;&gt;Malgo.Rename.RnEnv -->
<g id="edge64" class="edge">
<title>Malgo.Rename&#45;&gt;Malgo.Rename.RnEnv</title>
<path fill="none" stroke="black" d="M877.59,-361.46C863.51,-352.58 848.27,-340 840.45,-324 831.23,-305.12 834.53,-281.36 839.71,-263.14"/>
<polygon fill="black" stroke="black" points="842.99,-264.38 842.71,-253.79 836.32,-262.24 842.99,-264.38"/>
</g>
<!-- Malgo.Rename.RnState -->
<g id="node29" class="node">
<title>Malgo.Rename.RnState</title>
<ellipse fill="none" stroke="black" cx="1103.45" cy="-234" rx="100.48" ry="18"/>
<text text-anchor="middle" x="1103.45" y="-228.95" font-family="Times,serif" font-size="14.00">Malgo.Rename.RnState</text>
</g>
<!-- Malgo.Rename&#45;&gt;Malgo.Rename.RnState -->
<g id="edge65" class="edge">
<title>Malgo.Rename&#45;&gt;Malgo.Rename.RnState</title>
<path fill="none" stroke="black" d="M953.98,-364.17C979.35,-355.54 1010.55,-342.35 1034.45,-324 1056.54,-307.05 1075.4,-281.41 1087.8,-262"/>
<polygon fill="black" stroke="black" points="1090.76,-263.86 1093.04,-253.52 1084.81,-260.19 1090.76,-263.86"/>
</g>
<!-- Malgo.Sequent.Core&#45;&gt;Malgo.Module -->
<g id="edge73" class="edge">
<title>Malgo.Sequent.Core&#45;&gt;Malgo.Module</title>
<path fill="none" stroke="black" d="M2119.26,-287.76C2110.71,-266.77 2093.14,-232.15 2065.45,-216 2014.85,-186.49 1634.25,-170.83 1467.42,-165.32"/>
<polygon fill="black" stroke="black" points="1467.88,-161.83 1457.77,-165.01 1467.65,-168.83 1467.88,-161.83"/>
</g>
<!-- Malgo.Sequent.Core&#45;&gt;Malgo.SExpr -->
<g id="edge74" class="edge">
<title>Malgo.Sequent.Core&#45;&gt;Malgo.SExpr</title>
<path fill="none" stroke="black" d="M2122.31,-287.58C2118.37,-268.85 2110.39,-238.72 2096.45,-216 2071.26,-174.92 2029.95,-137.21 2001.77,-114.19"/>
<polygon fill="black" stroke="black" points="2004.29,-111.73 1994.3,-108.2 1999.91,-117.18 2004.29,-111.73"/>
</g>
<!-- Malgo.Sequent.Fun -->
<g id="node30" class="node">
<title>Malgo.Sequent.Fun</title>
<ellipse fill="none" stroke="black" cx="1971.45" cy="-234" rx="84.62" ry="18"/>
<text text-anchor="middle" x="1971.45" y="-228.95" font-family="Times,serif" font-size="14.00">Malgo.Sequent.Fun</text>
</g>
<!-- Malgo.Sequent.Core&#45;&gt;Malgo.Sequent.Fun -->
<g id="edge75" class="edge">
<title>Malgo.Sequent.Core&#45;&gt;Malgo.Sequent.Fun</title>
<path fill="none" stroke="black" d="M2090.51,-289.12C2068.65,-279.18 2040.28,-266.28 2016.71,-255.57"/>
<polygon fill="black" stroke="black" points="2018.19,-252.4 2007.64,-251.45 2015.29,-258.77 2018.19,-252.4"/>
</g>
<!-- Malgo.Sequent.Core.Flat&#45;&gt;Malgo.Module -->
<g id="edge76" class="edge">
<title>Malgo.Sequent.Core.Flat&#45;&gt;Malgo.Module</title>
<path fill="none" stroke="black" d="M1613.85,-364.66C1565.87,-355.17 1508.6,-340.85 1490.45,-324 1453.16,-289.38 1481.39,-257.86 1452.45,-216 1444.66,-204.72 1433.86,-194.46 1423.41,-186.03"/>
<polygon fill="black" stroke="black" points="1425.66,-183.34 1415.59,-180.03 1421.4,-188.9 1425.66,-183.34"/>
</g>
<!-- Malgo.Sequent.Core.Flat&#45;&gt;Malgo.Pass -->
<g id="edge77" class="edge">
<title>Malgo.Sequent.Core.Flat&#45;&gt;Malgo.Pass</title>
<path fill="none" stroke="black" d="M1611.08,-365.12C1521.97,-350.89 1385.18,-328.43 1381.45,-324 1367.43,-307.33 1371.2,-282.16 1377.46,-262.84"/>
<polygon fill="black" stroke="black" points="1380.67,-264.27 1380.8,-253.67 1374.09,-261.87 1380.67,-264.27"/>
</g>
<!-- Malgo.Sequent.Core.Flat&#45;&gt;Malgo.Sequent.Core -->
<g id="edge78" class="edge">
<title>Malgo.Sequent.Core.Flat&#45;&gt;Malgo.Sequent.Core</title>
<path fill="none" stroke="black" d="M1761.42,-365.05C1840.83,-352.38 1965.66,-332.48 2046.53,-319.58"/>
<polygon fill="black" stroke="black" points="2046.83,-323.08 2056.15,-318.05 2045.72,-316.17 2046.83,-323.08"/>
</g>
<!-- Malgo.Sequent.Core.Flat&#45;&gt;Malgo.Sequent.Fun -->
<g id="edge79" class="edge">
<title>Malgo.Sequent.Core.Flat&#45;&gt;Malgo.Sequent.Fun</title>
<path fill="none" stroke="black" d="M1777.32,-368.69C1842.53,-360.9 1923.01,-346.94 1947.45,-324 1963.78,-308.67 1969.43,-283.5 1971.2,-263.83"/>
<polygon fill="black" stroke="black" points="1974.68,-264.13 1971.77,-253.95 1967.7,-263.73 1974.68,-264.13"/>
</g>
<!-- Malgo.Sequent.Core.Join&#45;&gt;Malgo.Module -->
<g id="edge80" class="edge">
<title>Malgo.Sequent.Core.Join&#45;&gt;Malgo.Module</title>
<path fill="none" stroke="black" d="M1878.94,-364.79C1811.07,-353.06 1719.5,-335.48 1706.45,-324 1668.26,-290.37 1707.04,-249.17 1668.45,-216 1638.51,-190.26 1536.81,-175.98 1464.87,-168.9"/>
<polygon fill="black" stroke="black" points="1465.39,-165.43 1455.1,-167.97 1464.72,-172.4 1465.39,-165.43"/>
</g>
<!-- Malgo.Sequent.Core.Join&#45;&gt;Malgo.Pass -->
<g id="edge81" class="edge">
<title>Malgo.Sequent.Core.Join&#45;&gt;Malgo.Pass</title>
<path fill="none" stroke="black" d="M1867.3,-367.18C1845.5,-364.76 1822.12,-362.23 1800.45,-360 1715.86,-351.3 1486.12,-376.81 1419.45,-324 1401.27,-309.59 1394.03,-283.71 1391.19,-263.56"/>
<polygon fill="black" stroke="black" points="1394.68,-263.26 1390.11,-253.7 1387.72,-264.02 1394.68,-263.26"/>
</g>
<!-- Malgo.Sequent.Core.Join&#45;&gt;Malgo.Sequent.Core -->
<g id="edge82" class="edge">
<title>Malgo.Sequent.Core.Join&#45;&gt;Malgo.Sequent.Core</title>
<path fill="none" stroke="black" d="M1992.91,-360.94C2017.76,-350.83 2050.02,-337.7 2076.49,-326.93"/>
<polygon fill="black" stroke="black" points="2077.72,-330.21 2085.66,-323.19 2075.08,-323.72 2077.72,-330.21"/>
</g>
<!-- Malgo.Sequent.Core.Join&#45;&gt;Malgo.Sequent.Fun -->
<g id="edge83" class="edge">
<title>Malgo.Sequent.Core.Join&#45;&gt;Malgo.Sequent.Fun</title>
<path fill="none" stroke="black" d="M1967.02,-359.97C1974.01,-350.09 1981.82,-337.05 1985.45,-324 1991.03,-303.98 1987.04,-280.76 1981.92,-263.06"/>
<polygon fill="black" stroke="black" points="1985.32,-262.21 1978.94,-253.75 1978.66,-264.35 1985.32,-262.21"/>
</g>
<!-- Malgo.Sequent.Eval&#45;&gt;Malgo.Module -->
<g id="edge84" class="edge">
<title>Malgo.Sequent.Eval&#45;&gt;Malgo.Module</title>
<path fill="none" stroke="black" d="M2243.08,-359.84C2250.28,-340.79 2258.13,-309.86 2244.45,-288 2205.66,-225.99 2167.07,-235.07 2096.45,-216 1979.68,-184.46 1625.52,-170.11 1467.28,-165.15"/>
<polygon fill="black" stroke="black" points="1467.84,-161.66 1457.74,-164.85 1467.63,-168.66 1467.84,-161.66"/>
</g>
<!-- Malgo.Sequent.Eval&#45;&gt;Malgo.Pass -->
<g id="edge85" class="edge">
<title>Malgo.Sequent.Eval&#45;&gt;Malgo.Pass</title>
<path fill="none" stroke="black" d="M2159.86,-368.67C2131.25,-365.68 2098.37,-362.45 2068.45,-360 1940.19,-349.48 1609.37,-373.2 1490.45,-324 1457.57,-310.4 1428.08,-281.5 1409.57,-260.3"/>
<polygon fill="black" stroke="black" points="1412.45,-258.28 1403.31,-252.91 1407.11,-262.81 1412.45,-258.28"/>
</g>
<!-- Malgo.Sequent.Eval&#45;&gt;Malgo.Sequent.Core -->
<g id="edge87" class="edge">
<title>Malgo.Sequent.Eval&#45;&gt;Malgo.Sequent.Core</title>
<path fill="none" stroke="black" d="M2209.39,-360.41C2194.86,-351.17 2176.58,-339.54 2160.79,-329.49"/>
<polygon fill="black" stroke="black" points="2162.93,-326.7 2152.61,-324.28 2159.17,-332.6 2162.93,-326.7"/>
</g>
<!-- Malgo.Sequent.Eval&#45;&gt;Malgo.SExpr -->
<g id="edge86" class="edge">
<title>Malgo.Sequent.Eval&#45;&gt;Malgo.SExpr</title>
<path fill="none" stroke="black" d="M2247.95,-359.98C2259.8,-341.59 2274.18,-311.74 2262.45,-288 2214.45,-190.77 2092.83,-133.59 2022.95,-107.71"/>
<polygon fill="black" stroke="black" points="2024.22,-104.45 2013.62,-104.34 2021.84,-111.03 2024.22,-104.45"/>
</g>
<!-- Malgo.Sequent.Eval&#45;&gt;Malgo.Sequent.Fun -->
<g id="edge88" class="edge">
<title>Malgo.Sequent.Eval&#45;&gt;Malgo.Sequent.Fun</title>
<path fill="none" stroke="black" d="M2238.23,-359.82C2240.4,-339.86 2240.52,-307.24 2222.45,-288 2200.38,-264.49 2122.97,-250.62 2059.89,-243.01"/>
<polygon fill="black" stroke="black" points="2060.54,-239.56 2050.2,-241.88 2059.73,-246.51 2060.54,-239.56"/>
</g>
<!-- Malgo.Sequent.ToCore&#45;&gt;Malgo.Module -->
<g id="edge92" class="edge">
<title>Malgo.Sequent.ToCore&#45;&gt;Malgo.Module</title>
<path fill="none" stroke="black" d="M1397.55,-364.52C1374.06,-356.76 1349.74,-344.22 1334.45,-324 1305.43,-285.6 1306.14,-259.63 1326.45,-216 1332.1,-203.87 1342.04,-193.53 1352.37,-185.29"/>
<polygon fill="black" stroke="black" points="1354.27,-188.24 1360.24,-179.49 1350.12,-182.6 1354.27,-188.24"/>
</g>
<!-- Malgo.Sequent.ToCore&#45;&gt;Malgo.Pass -->
<g id="edge93" class="edge">
<title>Malgo.Sequent.ToCore&#45;&gt;Malgo.Pass</title>
<path fill="none" stroke="black" d="M1400.3,-364.02C1378.49,-356.21 1356.38,-343.77 1343.45,-324 1329.75,-303.04 1346.01,-277.51 1362.86,-259.18"/>
<polygon fill="black" stroke="black" points="1365,-261.99 1369.48,-252.39 1359.99,-257.1 1365,-261.99"/>
</g>
<!-- Malgo.Sequent.ToCore&#45;&gt;Malgo.Sequent.Core -->
<g id="edge94" class="edge">
<title>Malgo.Sequent.ToCore&#45;&gt;Malgo.Sequent.Core</title>
<path fill="none" stroke="black" d="M1531.58,-364.44C1542.2,-362.84 1553.1,-361.31 1563.45,-360 1566.33,-359.64 1876.4,-329.96 2034.73,-315.18"/>
<polygon fill="black" stroke="black" points="2034.72,-318.7 2044.35,-314.28 2034.07,-311.73 2034.72,-318.7"/>
</g>
<!-- Malgo.Sequent.ToCore&#45;&gt;Malgo.Sequent.Core -->
<g id="edge95" class="edge">
<title>Malgo.Sequent.ToCore&#45;&gt;Malgo.Sequent.Core</title>
<path fill="none" stroke="black" d="M1539.42,-365.94C1553.42,-363.81 1567.9,-361.72 1581.45,-360 1584.27,-359.64 1883.25,-331.03 2036.76,-316"/>
<polygon fill="black" stroke="black" points="2036.89,-319.5 2046.5,-315.05 2036.2,-312.54 2036.89,-319.5"/>
</g>
<!-- Malgo.Sequent.ToCore&#45;&gt;Malgo.Sequent.Fun -->
<g id="edge96" class="edge">
<title>Malgo.Sequent.ToCore&#45;&gt;Malgo.Sequent.Fun</title>
<path fill="none" stroke="black" d="M1535.83,-365.24C1548.04,-363.38 1560.6,-361.56 1572.45,-360 1648.22,-350.06 1849.42,-364.14 1914.45,-324 1926.5,-316.56 1944.75,-285.74 1957.33,-262.43"/>
<polygon fill="black" stroke="black" points="1960.37,-264.17 1961.96,-253.7 1954.19,-260.89 1960.37,-264.17"/>
</g>
<!-- Malgo.Sequent.ToFun&#45;&gt;Malgo.Module -->
<g id="edge98" class="edge">
<title>Malgo.Sequent.ToFun&#45;&gt;Malgo.Module</title>
<path fill="none" stroke="black" d="M1794.96,-287.8C1775.34,-267.19 1739.49,-233.28 1701.45,-216 1626.66,-182.02 1532.8,-169.65 1467.66,-165.24"/>
<polygon fill="black" stroke="black" points="1467.96,-161.75 1457.76,-164.62 1467.52,-168.74 1467.96,-161.75"/>
</g>
<!-- Malgo.Sequent.ToFun&#45;&gt;Malgo.Pass -->
<g id="edge99" class="edge">
<title>Malgo.Sequent.ToFun&#45;&gt;Malgo.Pass</title>
<path fill="none" stroke="black" d="M1740.93,-293.44C1659.24,-279.86 1525.12,-257.56 1448.33,-244.79"/>
<polygon fill="black" stroke="black" points="1449.37,-241.41 1438.93,-243.23 1448.22,-248.32 1449.37,-241.41"/>
</g>
<!-- Malgo.Sequent.ToFun&#45;&gt;Malgo.Infer.TypeRep -->
<g id="edge97" class="edge">
<title>Malgo.Sequent.ToFun&#45;&gt;Malgo.Infer.TypeRep</title>
<path fill="none" stroke="black" d="M1801.91,-287.81C1790.94,-267.54 1769.99,-234.29 1742.45,-216 1636.5,-145.62 1590.48,-167.43 1465.45,-144 1109.33,-77.27 679.52,-39.99 490.99,-25.77"/>
<polygon fill="black" stroke="black" points="491.49,-22.3 481.25,-25.04 490.97,-29.28 491.49,-22.3"/>
</g>
<!-- Malgo.Sequent.ToFun&#45;&gt;Malgo.Sequent.Fun -->
<g id="edge100" class="edge">
<title>Malgo.Sequent.ToFun&#45;&gt;Malgo.Sequent.Fun</title>
<path fill="none" stroke="black" d="M1846.99,-289.12C1870.12,-279.06 1900.25,-265.96 1925.07,-255.17"/>
<polygon fill="black" stroke="black" points="1926.18,-258.5 1933.95,-251.3 1923.39,-252.08 1926.18,-258.5"/>
</g>
<!-- Malgo.Infer.Error&#45;&gt;Malgo.Infer.TypeRep -->
<g id="edge20" class="edge">
<title>Malgo.Infer.Error&#45;&gt;Malgo.Infer.TypeRep</title>
<path fill="none" stroke="black" d="M132.31,-76.89C185.5,-65.14 266.42,-47.27 324.27,-34.5"/>
<polygon fill="black" stroke="black" points="324.67,-37.99 333.68,-32.42 323.16,-31.16 324.67,-37.99"/>
</g>
<!-- Malgo.Infer.Kind&#45;&gt;Malgo.Infer.Error -->
<g id="edge21" class="edge">
<title>Malgo.Infer.Kind&#45;&gt;Malgo.Infer.Error</title>
<path fill="none" stroke="black" d="M230.78,-146.33C201.04,-135.59 160.47,-120.96 128.54,-109.43"/>
<polygon fill="black" stroke="black" points="130.09,-106.27 119.49,-106.17 127.71,-112.86 130.09,-106.27"/>
</g>
<!-- Malgo.Infer.Kind&#45;&gt;Malgo.Infer.TypeRep -->
<g id="edge22" class="edge">
<title>Malgo.Infer.Kind&#45;&gt;Malgo.Infer.TypeRep</title>
<path fill="none" stroke="black" d="M286.29,-143.87C307.62,-119.24 347.13,-73.64 372.03,-44.88"/>
<polygon fill="black" stroke="black" points="374.67,-47.18 378.57,-37.33 369.38,-42.6 374.67,-47.18"/>
</g>
<!-- Malgo.Infer.Pass&#45;&gt;Malgo.Interface -->
<g id="edge28" class="edge">
<title>Malgo.Infer.Pass&#45;&gt;Malgo.Interface</title>
<path fill="none" stroke="black" d="M561.64,-575.79C564.86,-529.34 574.16,-397.53 583.45,-288 584.13,-280.05 584.92,-271.43 585.67,-263.51"/>
<polygon fill="black" stroke="black" points="589.14,-263.97 586.61,-253.69 582.17,-263.31 589.14,-263.97"/>
</g>
<!-- Malgo.Infer.Pass&#45;&gt;Malgo.Module -->
<g id="edge29" class="edge">
<title>Malgo.Infer.Pass&#45;&gt;Malgo.Module</title>
<path fill="none" stroke="black" d="M586.36,-576.75C616.83,-557.98 669.27,-526.76 716.45,-504 745.56,-489.96 958.72,-412.58 986.45,-396 1050.64,-357.64 1050.8,-325.56 1115.45,-288 1155.22,-264.9 1172.69,-275.1 1212.45,-252 1234.01,-239.48 1234.04,-228.75 1255.45,-216 1280.36,-201.18 1310.17,-188.92 1335.34,-179.93"/>
<polygon fill="black" stroke="black" points="1336.45,-183.25 1344.75,-176.66 1334.16,-176.64 1336.45,-183.25"/>
</g>
<!-- Malgo.Infer.Pass&#45;&gt;Malgo.Pass -->
<g id="edge30" class="edge">
<title>Malgo.Infer.Pass&#45;&gt;Malgo.Pass</title>
<path fill="none" stroke="black" d="M604.37,-579.08C693.25,-550.2 899.81,-479.44 1062.45,-396 1141.1,-355.65 1149.75,-326.21 1229.45,-288 1263.8,-271.54 1304.58,-258.12 1336.37,-248.9"/>
<polygon fill="black" stroke="black" points="1337.1,-252.33 1345.76,-246.23 1335.19,-245.6 1337.1,-252.33"/>
</g>
<!-- Malgo.Infer.Pass&#45;&gt;Malgo.Rename -->
<g id="edge31" class="edge">
<title>Malgo.Infer.Pass&#45;&gt;Malgo.Rename</title>
<path fill="none" stroke="black" d="M572.57,-576.06C587.14,-556.65 613.2,-524.82 641.45,-504 709.05,-454.18 799.67,-416.88 856.03,-396.51"/>
<polygon fill="black" stroke="black" points="857.16,-399.82 865.41,-393.17 854.81,-393.23 857.16,-399.82"/>
</g>
<!-- Malgo.Infer.Pass&#45;&gt;Malgo.Infer.Error -->
<g id="edge23" class="edge">
<title>Malgo.Infer.Pass&#45;&gt;Malgo.Infer.Error</title>
<path fill="none" stroke="black" d="M487.15,-590.41C385.73,-585.66 208.95,-572.84 154.45,-540 112.94,-514.99 91.45,-499.46 91.45,-451 91.45,-451 91.45,-451 91.45,-233 91.45,-193.55 86.04,-148.23 81.94,-119.61"/>
<polygon fill="black" stroke="black" points="85.43,-119.31 80.51,-109.93 78.51,-120.34 85.43,-119.31"/>
</g>
<!-- Malgo.Infer.Pass&#45;&gt;Malgo.Infer.Kind -->
<g id="edge24" class="edge">
<title>Malgo.Infer.Pass&#45;&gt;Malgo.Infer.Kind</title>
<path fill="none" stroke="black" d="M511.86,-580.02C431.92,-555.38 281.45,-493.77 281.45,-379 281.45,-379 281.45,-379 281.45,-305 281.45,-265.64 277.58,-220.3 274.66,-191.65"/>
<polygon fill="black" stroke="black" points="278.17,-191.54 273.64,-181.97 271.21,-192.28 278.17,-191.54"/>
</g>
<!-- Malgo.Infer.Pass&#45;&gt;Malgo.Infer.TcEnv -->
<g id="edge25" class="edge">
<title>Malgo.Infer.Pass&#45;&gt;Malgo.Infer.TcEnv</title>
<path fill="none" stroke="black" d="M545.03,-576.15C522.36,-551.39 479.87,-504.97 453.49,-476.16"/>
<polygon fill="black" stroke="black" points="456.21,-473.95 446.88,-468.94 451.05,-478.68 456.21,-473.95"/>
</g>
<!-- Malgo.Infer.Pass&#45;&gt;Malgo.Infer.TypeRep -->
<g id="edge26" class="edge">
<title>Malgo.Infer.Pass&#45;&gt;Malgo.Infer.TypeRep</title>
<path fill="none" stroke="black" d="M556.84,-575.98C550.49,-546.5 536.66,-484.09 522.45,-432 482.59,-285.79 426,-113.35 403.85,-46.97"/>
<polygon fill="black" stroke="black" points="407.22,-46 400.73,-37.62 400.58,-48.22 407.22,-46"/>
</g>
<!-- Malgo.Infer.Unify -->
<g id="node20" class="node">
<title>Malgo.Infer.Unify</title>
<ellipse fill="none" stroke="black" cx="243.45" cy="-522" rx="79.5" ry="18"/>
<text text-anchor="middle" x="243.45" y="-516.95" font-family="Times,serif" font-size="14.00">Malgo.Infer.Unify</text>
</g>
<!-- Malgo.Infer.Pass&#45;&gt;Malgo.Infer.Unify -->
<g id="edge27" class="edge">
<title>Malgo.Infer.Pass&#45;&gt;Malgo.Infer.Unify</title>
<path fill="none" stroke="black" d="M507.04,-581.2C452.75,-569.22 368.53,-550.62 309.95,-537.68"/>
<polygon fill="black" stroke="black" points="310.95,-534.32 300.43,-535.58 309.44,-541.16 310.95,-534.32"/>
</g>
<!-- Malgo.Infer.TcEnv&#45;&gt;Malgo.Interface -->
<g id="edge34" class="edge">
<title>Malgo.Infer.TcEnv&#45;&gt;Malgo.Interface</title>
<path fill="none" stroke="black" d="M442.2,-431.83C462.65,-402.12 506.32,-339.37 545.45,-288 552.31,-279 560.03,-269.34 567.02,-260.77"/>
<polygon fill="black" stroke="black" points="569.64,-263.09 573.28,-253.14 564.23,-258.65 569.64,-263.09"/>
</g>
<!-- Malgo.Infer.TcEnv&#45;&gt;Malgo.Module -->
<g id="edge35" class="edge">
<title>Malgo.Infer.TcEnv&#45;&gt;Malgo.Module</title>
<path fill="none" stroke="black" d="M508.99,-444.2C588.36,-434.67 707.21,-406.55 764.45,-324 792.27,-283.89 711.38,-251.9 744.45,-216 782.11,-175.12 1146.91,-165.77 1310.63,-163.63"/>
<polygon fill="black" stroke="black" points="1310.59,-167.13 1320.55,-163.51 1310.5,-160.14 1310.59,-167.13"/>
</g>
<!-- Malgo.Infer.TcEnv&#45;&gt;Malgo.Rename -->
<g id="edge36" class="edge">
<title>Malgo.Infer.TcEnv&#45;&gt;Malgo.Rename</title>
<path fill="none" stroke="black" d="M498.12,-439.4C571.78,-428.92 693.03,-411.54 797.45,-396 810.86,-394.01 825.17,-391.84 838.91,-389.74"/>
<polygon fill="black" stroke="black" points="839.43,-393.21 848.79,-388.23 838.37,-386.29 839.43,-393.21"/>
</g>
<!-- Malgo.Infer.TcEnv&#45;&gt;Malgo.Infer.Kind -->
<g id="edge32" class="edge">
<title>Malgo.Infer.TcEnv&#45;&gt;Malgo.Infer.Kind</title>
<path fill="none" stroke="black" d="M412.21,-432C402.29,-422.13 390.29,-409.09 381.45,-396 369.05,-377.62 309.9,-248.01 283.84,-190.44"/>
<polygon fill="black" stroke="black" points="287.17,-189.3 279.86,-181.63 280.79,-192.19 287.17,-189.3"/>
</g>
<!-- Malgo.Infer.TcEnv&#45;&gt;Malgo.Infer.TypeRep -->
<g id="edge33" class="edge">
<title>Malgo.Infer.TcEnv&#45;&gt;Malgo.Infer.TypeRep</title>
<path fill="none" stroke="black" d="M426.93,-431.7C420.14,-397.54 405.41,-318.9 399.45,-252 392.93,-178.67 393.15,-91.86 393.83,-47.79"/>
<polygon fill="black" stroke="black" points="397.33,-47.86 394,-37.8 390.33,-47.74 397.33,-47.86"/>
</g>
<!-- Malgo.Infer.Unify&#45;&gt;Malgo.Module -->
<g id="edge41" class="edge">
<title>Malgo.Infer.Unify&#45;&gt;Malgo.Module</title>
<path fill="none" stroke="black" d="M252.03,-503.66C279.98,-449.33 374.43,-282.03 508.45,-216 579.37,-181.06 1108.46,-168.01 1310.95,-164.26"/>
<polygon fill="black" stroke="black" points="1310.92,-167.77 1320.85,-164.08 1310.79,-160.77 1310.92,-167.77"/>
</g>
<!-- Malgo.Infer.Unify&#45;&gt;Malgo.Infer.Error -->
<g id="edge37" class="edge">
<title>Malgo.Infer.Unify&#45;&gt;Malgo.Infer.Error</title>
<path fill="none" stroke="black" d="M222.54,-504.34C211.81,-494.76 199.36,-481.89 191.45,-468 117.73,-338.53 159.71,-282.76 105.45,-144 102.08,-135.37 97.67,-126.34 93.35,-118.22"/>
<polygon fill="black" stroke="black" points="96.44,-116.59 88.55,-109.52 90.31,-119.97 96.44,-116.59"/>
</g>
<!-- Malgo.Infer.Unify&#45;&gt;Malgo.Infer.Kind -->
<g id="edge38" class="edge">
<title>Malgo.Infer.Unify&#45;&gt;Malgo.Infer.Kind</title>
<path fill="none" stroke="black" d="M243.45,-503.51C243.45,-476.71 243.45,-423.87 243.45,-379 243.45,-379 243.45,-379 243.45,-305 243.45,-264.81 254.39,-219.4 262.59,-190.99"/>
<polygon fill="black" stroke="black" points="265.85,-192.31 265.35,-181.72 259.14,-190.3 265.85,-192.31"/>
</g>
<!-- Malgo.Infer.Unify&#45;&gt;Malgo.Infer.TcEnv -->
<g id="edge39" class="edge">
<title>Malgo.Infer.Unify&#45;&gt;Malgo.Infer.TcEnv</title>
<path fill="none" stroke="black" d="M283.11,-506.15C311.31,-495.6 349.41,-481.34 379.81,-469.96"/>
<polygon fill="black" stroke="black" points="380.65,-473.38 388.79,-466.6 378.2,-466.82 380.65,-473.38"/>
</g>
<!-- Malgo.Infer.Unify&#45;&gt;Malgo.Infer.TypeRep -->
<g id="edge40" class="edge">
<title>Malgo.Infer.Unify&#45;&gt;Malgo.Infer.TypeRep</title>
<path fill="none" stroke="black" d="M233.72,-503.84C203.4,-447.9 116.7,-267.3 186.45,-144 217.67,-88.83 284.04,-55.33 333.46,-37.09"/>
<polygon fill="black" stroke="black" points="334.37,-40.48 342.62,-33.82 332.02,-33.88 334.37,-40.48"/>
</g>
<!-- Malgo.Monad -->
<g id="node22" class="node">
<title>Malgo.Monad</title>
<ellipse fill="none" stroke="black" cx="690.45" cy="-306" rx="64.66" ry="18"/>
<text text-anchor="middle" x="690.45" y="-300.95" font-family="Times,serif" font-size="14.00">Malgo.Monad</text>
</g>
<!-- Malgo.Monad&#45;&gt;Malgo.Interface -->
<g id="edge47" class="edge">
<title>Malgo.Monad&#45;&gt;Malgo.Interface</title>
<path fill="none" stroke="black" d="M666.8,-288.76C653.38,-279.55 636.37,-267.88 621.63,-257.77"/>
<polygon fill="black" stroke="black" points="623.81,-255.02 613.58,-252.25 619.85,-260.79 623.81,-255.02"/>
</g>
<!-- Malgo.Monad&#45;&gt;Malgo.Module -->
<g id="edge48" class="edge">
<title>Malgo.Monad&#45;&gt;Malgo.Module</title>
<path fill="none" stroke="black" d="M689.03,-287.56C688.42,-267.05 690.96,-233.56 711.45,-216 756.12,-177.72 1142.15,-166.92 1310.97,-164.01"/>
<polygon fill="black" stroke="black" points="1310.8,-167.52 1320.74,-163.85 1310.69,-160.52 1310.8,-167.52"/>
</g>
<!-- Malgo.Parser&#45;&gt;Malgo.Module -->
<g id="edge49" class="edge">
<title>Malgo.Parser&#45;&gt;Malgo.Module</title>
<path fill="none" stroke="black" d="M1559.14,-219.83C1525.82,-208.67 1477.76,-192.58 1441.29,-180.36"/>
<polygon fill="black" stroke="black" points="1442.4,-177.04 1431.81,-177.19 1440.18,-183.68 1442.4,-177.04"/>
</g>
<!-- Malgo.Refine.Pass&#45;&gt;Malgo.Infer -->
<g id="edge56" class="edge">
<title>Malgo.Refine.Pass&#45;&gt;Malgo.Infer</title>
<path fill="none" stroke="black" d="M926.86,-863.66C937.64,-831.08 954.98,-760.41 919.45,-720 891.36,-688.05 776.07,-675.18 701,-670.13"/>
<polygon fill="black" stroke="black" points="701.49,-666.66 691.29,-669.51 701.05,-673.64 701.49,-666.66"/>
</g>
<!-- Malgo.Refine.Pass&#45;&gt;Malgo.Pass -->
<g id="edge57" class="edge">
<title>Malgo.Refine.Pass&#45;&gt;Malgo.Pass</title>
<path fill="none" stroke="black" d="M951.5,-864.98C990.24,-842.5 1051.45,-797.7 1051.45,-739 1051.45,-739 1051.45,-739 1051.45,-665 1051.45,-471.89 1123.58,-416.8 1267.45,-288 1287.13,-270.38 1313.58,-257.93 1336.83,-249.54"/>
<polygon fill="black" stroke="black" points="1337.83,-252.89 1346.15,-246.34 1335.56,-246.27 1337.83,-252.89"/>
</g>
<!-- Malgo.Refine.Pass&#45;&gt;Malgo.Refine.RefineEnv -->
<g id="edge58" class="edge">
<title>Malgo.Refine.Pass&#45;&gt;Malgo.Refine.RefineEnv</title>
<path fill="none" stroke="black" d="M920.85,-863.54C920.43,-844.23 917.08,-813.06 901.45,-792 891.31,-778.34 876.55,-767.75 861.64,-759.76"/>
<polygon fill="black" stroke="black" points="863.2,-756.64 852.69,-755.32 860.09,-762.9 863.2,-756.64"/>
</g>
<!-- Malgo.Refine.Pass&#45;&gt;Malgo.Refine.Space -->
<g id="edge59" class="edge">
<title>Malgo.Refine.Pass&#45;&gt;Malgo.Refine.Space</title>
<path fill="none" stroke="black" d="M893.49,-864.59C878.17,-855.26 858.78,-843.46 842.1,-833.31"/>
<polygon fill="black" stroke="black" points="844.3,-830.55 833.94,-828.34 840.66,-836.53 844.3,-830.55"/>
</g>
<!-- Malgo.Refine.RefineEnv&#45;&gt;Malgo.Infer -->
<g id="edge60" class="edge">
<title>Malgo.Refine.RefineEnv&#45;&gt;Malgo.Infer</title>
<path fill="none" stroke="black" d="M766.22,-720.94C740.02,-710.21 705.52,-696.09 678.4,-684.99"/>
<polygon fill="black" stroke="black" points="680,-681.86 669.42,-681.32 677.35,-688.34 680,-681.86"/>
</g>
<!-- Malgo.Refine.Space&#45;&gt;Malgo.Infer -->
<g id="edge61" class="edge">
<title>Malgo.Refine.Space&#45;&gt;Malgo.Infer</title>
<path fill="none" stroke="black" d="M759.26,-794.39C737.02,-785.74 711.01,-773.09 691.45,-756 671.96,-738.96 656.64,-713.67 646.81,-694.4"/>
<polygon fill="black" stroke="black" points="650,-692.94 642.46,-685.49 643.71,-696.01 650,-692.94"/>
</g>
<!-- Malgo.Refine.Space&#45;&gt;Malgo.Refine.RefineEnv -->
<g id="edge62" class="edge">
<title>Malgo.Refine.Space&#45;&gt;Malgo.Refine.RefineEnv</title>
<path fill="none" stroke="black" d="M805.45,-791.7C805.45,-784.41 805.45,-775.73 805.45,-767.54"/>
<polygon fill="black" stroke="black" points="808.95,-767.62 805.45,-757.62 801.95,-767.62 808.95,-767.62"/>
</g>
<!-- Malgo.Rename.Pass&#45;&gt;Malgo.Interface -->
<g id="edge66" class="edge">
<title>Malgo.Rename.Pass&#45;&gt;Malgo.Interface</title>
<path fill="none" stroke="black" d="M876.26,-292.73C813.93,-280.22 717.61,-260.91 653.81,-248.11"/>
<polygon fill="black" stroke="black" points="654.66,-244.71 644.17,-246.18 653.29,-251.57 654.66,-244.71"/>
</g>
<!-- Malgo.Rename.Pass&#45;&gt;Malgo.Module -->
<g id="edge67" class="edge">
<title>Malgo.Rename.Pass&#45;&gt;Malgo.Module</title>
<path fill="none" stroke="black" d="M943.38,-287.66C951.45,-266.91 967.99,-232.86 994.45,-216 1045.58,-183.42 1211.81,-170.61 1311.6,-165.77"/>
<polygon fill="black" stroke="black" points="1311.49,-169.28 1321.32,-165.32 1311.17,-162.29 1311.49,-169.28"/>
</g>
<!-- Malgo.Rename.Pass&#45;&gt;Malgo.Pass -->
<g id="edge68" class="edge">
<title>Malgo.Rename.Pass&#45;&gt;Malgo.Pass</title>
<path fill="none" stroke="black" d="M1005.61,-294.44C1093.71,-280.8 1245.71,-257.26 1329.57,-244.27"/>
<polygon fill="black" stroke="black" points="1330.09,-247.74 1339.44,-242.75 1329.02,-240.82 1330.09,-247.74"/>
</g>
<!-- Malgo.Rename.Pass&#45;&gt;Malgo.Rename.RnEnv -->
<g id="edge69" class="edge">
<title>Malgo.Rename.Pass&#45;&gt;Malgo.Rename.RnEnv</title>
<path fill="none" stroke="black" d="M916.39,-288.05C905.57,-279.35 892.2,-268.59 880.34,-259.04"/>
<polygon fill="black" stroke="black" points="882.79,-256.52 872.8,-252.98 878.4,-261.98 882.79,-256.52"/>
</g>
<!-- Malgo.Rename.Pass&#45;&gt;Malgo.Rename.RnState -->
<g id="edge70" class="edge">
<title>Malgo.Rename.Pass&#45;&gt;Malgo.Rename.RnState</title>
<path fill="none" stroke="black" d="M974.71,-289.29C998.38,-279.31 1029.27,-266.28 1054.86,-255.49"/>
<polygon fill="black" stroke="black" points="1056.21,-258.72 1064.07,-251.61 1053.49,-252.27 1056.21,-258.72"/>
</g>
<!-- Malgo.Rename.RnEnv&#45;&gt;Malgo.Module -->
<g id="edge71" class="edge">
<title>Malgo.Rename.RnEnv&#45;&gt;Malgo.Module</title>
<path fill="none" stroke="black" d="M922.66,-221.63C935.57,-219.69 948.9,-217.74 961.45,-216 1086.25,-198.72 1231.9,-181.26 1317.07,-171.32"/>
<polygon fill="black" stroke="black" points="1317.4,-174.81 1326.92,-170.17 1316.59,-167.85 1317.4,-174.81"/>
</g>
<!-- Malgo.Rename.RnState&#45;&gt;Malgo.Module -->
<g id="edge72" class="edge">
<title>Malgo.Rename.RnState&#45;&gt;Malgo.Module</title>
<path fill="none" stroke="black" d="M1160.99,-218.92C1210.12,-206.89 1280.52,-189.66 1330.15,-177.51"/>
<polygon fill="black" stroke="black" points="1330.69,-180.99 1339.57,-175.21 1329.03,-174.19 1330.69,-180.99"/>
</g>
<!-- Malgo.Sequent.Fun&#45;&gt;Malgo.Module -->
<g id="edge89" class="edge">
<title>Malgo.Sequent.Fun&#45;&gt;Malgo.Module</title>
<path fill="none" stroke="black" d="M1899.21,-224.31C1787.08,-210.82 1572.45,-185.01 1460.84,-171.59"/>
<polygon fill="black" stroke="black" points="1461.56,-168.15 1451.21,-170.43 1460.72,-175.1 1461.56,-168.15"/>
</g>
<!-- Malgo.Sequent.Fun&#45;&gt;Malgo.SExpr -->
<g id="edge90" class="edge">
<title>Malgo.Sequent.Fun&#45;&gt;Malgo.SExpr</title>
<path fill="none" stroke="black" d="M1966.84,-215.59C1964.34,-191.61 1964.03,-148.14 1965.93,-119.42"/>
<polygon fill="black" stroke="black" points="1969.4,-119.88 1966.74,-109.62 1962.42,-119.29 1969.4,-119.88"/>
</g>
<!-- Malgo.Sequent.Fun&#45;&gt;Malgo.SExpr -->
<g id="edge91" class="edge">
<title>Malgo.Sequent.Fun&#45;&gt;Malgo.SExpr</title>
<path fill="none" stroke="black" d="M1976.07,-215.59C1978.57,-191.61 1978.87,-148.14 1976.98,-119.42"/>
<polygon fill="black" stroke="black" points="1980.48,-119.29 1976.16,-109.62 1973.51,-119.88 1980.48,-119.29"/>
</g>
</g>
</svg>
